# xmcd CD database file
#
# Track frame offsets:
#	150
#	17147
#	31371
#	46748
#	63280
#	74879
#	104098
#	137525
#	167839
#	187148
#	210235
#	245168
#	264876
#
# Disc length: 3950 seconds
#
# Revision: 0
# Processed by: cddbd v1.5.2PL0 Copyright (c) Steve Scherf et al.
# Submitted via: CDex 1.70beta2
#
DISCID=bf0f6c0d
DTITLE=Silver, Horace - Creepin' In
DYEAR=2012
DGENRE=Jazz
TTITLE0=Horoscope
TTITLE1=Ecaroh
TTITLE2=Opus De Funk
TTITLE3=How About You
TTITLE4=Silverware
TTITLE5=Quicksilver
TTITLE6=Creepin' In
TTITLE7=Doodli'
TTITLE8=The Preacher
TTITLE9=To Whom It may concern
TTITLE10=Silver's Blue
TTITLE11=Camouflage
TTITLE12=Senor Blues
EXTD=YEAR: 2012
EXTT0=
EXTT1=
EXTT2=
EXTT3=
EXTT4=
EXTT5=
EXTT6=
EXTT7=
EXTT8=
EXTT9=
EXTT10=
EXTT11=
EXTT12=
PLAYORDER=
